<mxfile host="app.diagrams.net" modified="2021-02-27T02:28:55.705Z" agent="5.0 (Windows)" etag="9PP1jh7EkVZzmv2Qv-P4" version="14.3.2" type="github">
  <diagram id="C5RBs43oDa-KdzZeNtuy" name="Page-1">
    <mxGraphModel dx="868" dy="479" grid="1" gridSize="10" guides="1" tooltips="1" connect="1" arrows="1" fold="1" page="1" pageScale="1" pageWidth="827" pageHeight="1169" math="0" shadow="0">
      <root>
        <mxCell id="WIyWlLk6GJQsqaUBKTNV-0" />
        <mxCell id="WIyWlLk6GJQsqaUBKTNV-1" parent="WIyWlLk6GJQsqaUBKTNV-0" />
        <mxCell id="TFv3z8MR6hkjEZYm8_rw-0" value="Atendente" style="shape=umlActor;verticalLabelPosition=bottom;verticalAlign=top;html=1;outlineConnect=0;" vertex="1" parent="WIyWlLk6GJQsqaUBKTNV-1">
          <mxGeometry x="30" y="350" width="30" height="60" as="geometry" />
        </mxCell>
        <mxCell id="TFv3z8MR6hkjEZYm8_rw-1" value="Verificar fila de espera" style="ellipse;whiteSpace=wrap;html=1;" vertex="1" parent="WIyWlLk6GJQsqaUBKTNV-1">
          <mxGeometry x="120" y="100" width="140" height="40" as="geometry" />
        </mxCell>
        <mxCell id="TFv3z8MR6hkjEZYm8_rw-2" value="Chamar senhas" style="ellipse;whiteSpace=wrap;html=1;" vertex="1" parent="WIyWlLk6GJQsqaUBKTNV-1">
          <mxGeometry x="140" y="190" width="140" height="40" as="geometry" />
        </mxCell>
        <mxCell id="TFv3z8MR6hkjEZYm8_rw-3" value="" style="endArrow=classic;html=1;entryX=0;entryY=0.5;entryDx=0;entryDy=0;exitX=1;exitY=0.3333333333333333;exitDx=0;exitDy=0;exitPerimeter=0;" edge="1" parent="WIyWlLk6GJQsqaUBKTNV-1" source="TFv3z8MR6hkjEZYm8_rw-0" target="TFv3z8MR6hkjEZYm8_rw-1">
          <mxGeometry width="50" height="50" relative="1" as="geometry">
            <mxPoint x="100" y="270" as="sourcePoint" />
            <mxPoint x="150" y="220" as="targetPoint" />
          </mxGeometry>
        </mxCell>
        <mxCell id="TFv3z8MR6hkjEZYm8_rw-4" value="" style="endArrow=classic;html=1;entryX=0.007;entryY=0.3;entryDx=0;entryDy=0;entryPerimeter=0;exitX=1;exitY=0.3333333333333333;exitDx=0;exitDy=0;exitPerimeter=0;" edge="1" parent="WIyWlLk6GJQsqaUBKTNV-1" source="TFv3z8MR6hkjEZYm8_rw-0" target="TFv3z8MR6hkjEZYm8_rw-2">
          <mxGeometry width="50" height="50" relative="1" as="geometry">
            <mxPoint x="110" y="290" as="sourcePoint" />
            <mxPoint x="170" y="120" as="targetPoint" />
          </mxGeometry>
        </mxCell>
        <mxCell id="TFv3z8MR6hkjEZYm8_rw-7" value="Iniciar Atendimento" style="ellipse;whiteSpace=wrap;html=1;" vertex="1" parent="WIyWlLk6GJQsqaUBKTNV-1">
          <mxGeometry x="160" y="270" width="140" height="40" as="geometry" />
        </mxCell>
        <mxCell id="TFv3z8MR6hkjEZYm8_rw-8" value="" style="endArrow=classic;html=1;entryX=0;entryY=0.5;entryDx=0;entryDy=0;exitX=1;exitY=0.3333333333333333;exitDx=0;exitDy=0;exitPerimeter=0;" edge="1" parent="WIyWlLk6GJQsqaUBKTNV-1" source="TFv3z8MR6hkjEZYm8_rw-0" target="TFv3z8MR6hkjEZYm8_rw-7">
          <mxGeometry width="50" height="50" relative="1" as="geometry">
            <mxPoint x="70" y="250" as="sourcePoint" />
            <mxPoint x="110" y="210" as="targetPoint" />
          </mxGeometry>
        </mxCell>
        <mxCell id="TFv3z8MR6hkjEZYm8_rw-9" value="Encerrar Atendimento" style="ellipse;whiteSpace=wrap;html=1;" vertex="1" parent="WIyWlLk6GJQsqaUBKTNV-1">
          <mxGeometry x="169" y="350" width="150" height="40" as="geometry" />
        </mxCell>
        <mxCell id="TFv3z8MR6hkjEZYm8_rw-10" value="" style="endArrow=classic;html=1;entryX=0;entryY=0.5;entryDx=0;entryDy=0;exitX=1;exitY=0.3333333333333333;exitDx=0;exitDy=0;exitPerimeter=0;" edge="1" parent="WIyWlLk6GJQsqaUBKTNV-1" source="TFv3z8MR6hkjEZYm8_rw-0" target="TFv3z8MR6hkjEZYm8_rw-9">
          <mxGeometry width="50" height="50" relative="1" as="geometry">
            <mxPoint x="80" y="300" as="sourcePoint" />
            <mxPoint x="130" y="250" as="targetPoint" />
          </mxGeometry>
        </mxCell>
        <mxCell id="TFv3z8MR6hkjEZYm8_rw-11" value="Realizar chamada avulsa" style="ellipse;whiteSpace=wrap;html=1;" vertex="1" parent="WIyWlLk6GJQsqaUBKTNV-1">
          <mxGeometry x="169" y="420" width="160" height="50" as="geometry" />
        </mxCell>
        <mxCell id="TFv3z8MR6hkjEZYm8_rw-12" value="" style="endArrow=classic;html=1;entryX=0.031;entryY=0.26;entryDx=0;entryDy=0;entryPerimeter=0;exitX=1;exitY=0.3333333333333333;exitDx=0;exitDy=0;exitPerimeter=0;" edge="1" parent="WIyWlLk6GJQsqaUBKTNV-1" source="TFv3z8MR6hkjEZYm8_rw-0" target="TFv3z8MR6hkjEZYm8_rw-11">
          <mxGeometry width="50" height="50" relative="1" as="geometry">
            <mxPoint x="90" y="300" as="sourcePoint" />
            <mxPoint x="140" y="250" as="targetPoint" />
          </mxGeometry>
        </mxCell>
        <mxCell id="TFv3z8MR6hkjEZYm8_rw-13" value="Cliente" style="shape=umlActor;verticalLabelPosition=bottom;verticalAlign=top;html=1;outlineConnect=0;" vertex="1" parent="WIyWlLk6GJQsqaUBKTNV-1">
          <mxGeometry x="760" y="340" width="30" height="60" as="geometry" />
        </mxCell>
        <mxCell id="TFv3z8MR6hkjEZYm8_rw-14" value="Retirar senha" style="ellipse;whiteSpace=wrap;html=1;" vertex="1" parent="WIyWlLk6GJQsqaUBKTNV-1">
          <mxGeometry x="580" y="360" width="140" height="40" as="geometry" />
        </mxCell>
        <mxCell id="TFv3z8MR6hkjEZYm8_rw-15" value="Acompanhar painel de senhas" style="ellipse;whiteSpace=wrap;html=1;" vertex="1" parent="WIyWlLk6GJQsqaUBKTNV-1">
          <mxGeometry x="576.25" y="440" width="147.5" height="50" as="geometry" />
        </mxCell>
        <mxCell id="TFv3z8MR6hkjEZYm8_rw-16" value="Escolher o tipo de atendimento" style="ellipse;whiteSpace=wrap;html=1;" vertex="1" parent="WIyWlLk6GJQsqaUBKTNV-1">
          <mxGeometry x="576.25" y="265" width="135" height="50" as="geometry" />
        </mxCell>
        <mxCell id="TFv3z8MR6hkjEZYm8_rw-17" value="" style="endArrow=classic;html=1;exitX=0;exitY=0.3333333333333333;exitDx=0;exitDy=0;exitPerimeter=0;entryX=1;entryY=0.5;entryDx=0;entryDy=0;" edge="1" parent="WIyWlLk6GJQsqaUBKTNV-1" source="TFv3z8MR6hkjEZYm8_rw-13" target="TFv3z8MR6hkjEZYm8_rw-16">
          <mxGeometry width="50" height="50" relative="1" as="geometry">
            <mxPoint x="690" y="425" as="sourcePoint" />
            <mxPoint x="650" y="320" as="targetPoint" />
          </mxGeometry>
        </mxCell>
        <mxCell id="TFv3z8MR6hkjEZYm8_rw-18" value="" style="endArrow=classic;html=1;exitX=0;exitY=0.3333333333333333;exitDx=0;exitDy=0;exitPerimeter=0;entryX=1;entryY=0.5;entryDx=0;entryDy=0;" edge="1" parent="WIyWlLk6GJQsqaUBKTNV-1" source="TFv3z8MR6hkjEZYm8_rw-13" target="TFv3z8MR6hkjEZYm8_rw-14">
          <mxGeometry width="50" height="50" relative="1" as="geometry">
            <mxPoint x="410" y="330" as="sourcePoint" />
            <mxPoint x="660" y="390" as="targetPoint" />
          </mxGeometry>
        </mxCell>
        <mxCell id="TFv3z8MR6hkjEZYm8_rw-19" value="" style="endArrow=classic;html=1;entryX=0.983;entryY=0.38;entryDx=0;entryDy=0;entryPerimeter=0;exitX=0;exitY=0.3333333333333333;exitDx=0;exitDy=0;exitPerimeter=0;" edge="1" parent="WIyWlLk6GJQsqaUBKTNV-1" source="TFv3z8MR6hkjEZYm8_rw-13" target="TFv3z8MR6hkjEZYm8_rw-15">
          <mxGeometry width="50" height="50" relative="1" as="geometry">
            <mxPoint x="410" y="330" as="sourcePoint" />
            <mxPoint x="460" y="280" as="targetPoint" />
          </mxGeometry>
        </mxCell>
        <mxCell id="TFv3z8MR6hkjEZYm8_rw-21" value="Gestor" style="shape=umlActor;verticalLabelPosition=bottom;verticalAlign=top;html=1;outlineConnect=0;" vertex="1" parent="WIyWlLk6GJQsqaUBKTNV-1">
          <mxGeometry x="740" y="710" width="30" height="60" as="geometry" />
        </mxCell>
        <mxCell id="TFv3z8MR6hkjEZYm8_rw-22" value="Gerenciar os dados" style="ellipse;whiteSpace=wrap;html=1;" vertex="1" parent="WIyWlLk6GJQsqaUBKTNV-1">
          <mxGeometry x="490" y="680" width="120" height="40" as="geometry" />
        </mxCell>
        <mxCell id="TFv3z8MR6hkjEZYm8_rw-23" value="Reiniciar senhas" style="ellipse;whiteSpace=wrap;html=1;" vertex="1" parent="WIyWlLk6GJQsqaUBKTNV-1">
          <mxGeometry x="490" y="610" width="120" height="40" as="geometry" />
        </mxCell>
        <mxCell id="TFv3z8MR6hkjEZYm8_rw-24" value="Definir informações escritas" style="ellipse;whiteSpace=wrap;html=1;" vertex="1" parent="WIyWlLk6GJQsqaUBKTNV-1">
          <mxGeometry x="490" y="810" width="120" height="50" as="geometry" />
        </mxCell>
        <mxCell id="TFv3z8MR6hkjEZYm8_rw-25" value="Definir as cores do aplicativo" style="ellipse;whiteSpace=wrap;html=1;" vertex="1" parent="WIyWlLk6GJQsqaUBKTNV-1">
          <mxGeometry x="490" y="890" width="120" height="50" as="geometry" />
        </mxCell>
        <mxCell id="TFv3z8MR6hkjEZYm8_rw-26" value="&lt;div&gt;Gerar relatórios&lt;/div&gt;" style="ellipse;whiteSpace=wrap;html=1;" vertex="1" parent="WIyWlLk6GJQsqaUBKTNV-1">
          <mxGeometry x="490" y="745" width="120" height="40" as="geometry" />
        </mxCell>
        <mxCell id="TFv3z8MR6hkjEZYm8_rw-28" value="" style="endArrow=classic;html=1;entryX=1;entryY=0.5;entryDx=0;entryDy=0;exitX=0;exitY=0.3333333333333333;exitDx=0;exitDy=0;exitPerimeter=0;" edge="1" parent="WIyWlLk6GJQsqaUBKTNV-1" source="TFv3z8MR6hkjEZYm8_rw-21" target="TFv3z8MR6hkjEZYm8_rw-26">
          <mxGeometry width="50" height="50" relative="1" as="geometry">
            <mxPoint x="410" y="260" as="sourcePoint" />
            <mxPoint x="670" y="40" as="targetPoint" />
          </mxGeometry>
        </mxCell>
        <mxCell id="TFv3z8MR6hkjEZYm8_rw-29" value="" style="endArrow=classic;html=1;entryX=0.95;entryY=0.725;entryDx=0;entryDy=0;entryPerimeter=0;exitX=0;exitY=0.3333333333333333;exitDx=0;exitDy=0;exitPerimeter=0;" edge="1" parent="WIyWlLk6GJQsqaUBKTNV-1" source="TFv3z8MR6hkjEZYm8_rw-21" target="TFv3z8MR6hkjEZYm8_rw-22">
          <mxGeometry width="50" height="50" relative="1" as="geometry">
            <mxPoint x="730" y="240" as="sourcePoint" />
            <mxPoint x="460" y="210" as="targetPoint" />
          </mxGeometry>
        </mxCell>
        <mxCell id="TFv3z8MR6hkjEZYm8_rw-31" value="" style="endArrow=classic;html=1;entryX=1;entryY=0.5;entryDx=0;entryDy=0;exitX=0;exitY=0.3333333333333333;exitDx=0;exitDy=0;exitPerimeter=0;" edge="1" parent="WIyWlLk6GJQsqaUBKTNV-1" source="TFv3z8MR6hkjEZYm8_rw-21" target="TFv3z8MR6hkjEZYm8_rw-23">
          <mxGeometry width="50" height="50" relative="1" as="geometry">
            <mxPoint x="410" y="260" as="sourcePoint" />
            <mxPoint x="460" y="210" as="targetPoint" />
          </mxGeometry>
        </mxCell>
        <mxCell id="TFv3z8MR6hkjEZYm8_rw-32" value="" style="endArrow=classic;html=1;exitX=0;exitY=0.3333333333333333;exitDx=0;exitDy=0;exitPerimeter=0;entryX=1;entryY=0.5;entryDx=0;entryDy=0;" edge="1" parent="WIyWlLk6GJQsqaUBKTNV-1" source="TFv3z8MR6hkjEZYm8_rw-21" target="TFv3z8MR6hkjEZYm8_rw-24">
          <mxGeometry width="50" height="50" relative="1" as="geometry">
            <mxPoint x="410" y="260" as="sourcePoint" />
            <mxPoint x="670" y="225" as="targetPoint" />
          </mxGeometry>
        </mxCell>
        <mxCell id="TFv3z8MR6hkjEZYm8_rw-33" value="" style="endArrow=classic;html=1;entryX=1;entryY=0.5;entryDx=0;entryDy=0;exitX=0;exitY=0.3333333333333333;exitDx=0;exitDy=0;exitPerimeter=0;" edge="1" parent="WIyWlLk6GJQsqaUBKTNV-1" source="TFv3z8MR6hkjEZYm8_rw-21" target="TFv3z8MR6hkjEZYm8_rw-25">
          <mxGeometry width="50" height="50" relative="1" as="geometry">
            <mxPoint x="410" y="260" as="sourcePoint" />
            <mxPoint x="460" y="210" as="targetPoint" />
          </mxGeometry>
        </mxCell>
        <mxCell id="TFv3z8MR6hkjEZYm8_rw-34" value="BD" style="shape=umlActor;verticalLabelPosition=bottom;verticalAlign=top;html=1;outlineConnect=0;" vertex="1" parent="WIyWlLk6GJQsqaUBKTNV-1">
          <mxGeometry x="40" y="720" width="30" height="60" as="geometry" />
        </mxCell>
        <mxCell id="TFv3z8MR6hkjEZYm8_rw-35" value="CRUD" style="ellipse;whiteSpace=wrap;html=1;" vertex="1" parent="WIyWlLk6GJQsqaUBKTNV-1">
          <mxGeometry x="140" y="560" width="120" height="40" as="geometry" />
        </mxCell>
        <mxCell id="TFv3z8MR6hkjEZYm8_rw-36" value="Imprimir cupons" style="ellipse;whiteSpace=wrap;html=1;" vertex="1" parent="WIyWlLk6GJQsqaUBKTNV-1">
          <mxGeometry x="414" y="520" width="120" height="40" as="geometry" />
        </mxCell>
        <mxCell id="TFv3z8MR6hkjEZYm8_rw-37" value="Gerar tabelas com dados específicos" style="ellipse;whiteSpace=wrap;html=1;" vertex="1" parent="WIyWlLk6GJQsqaUBKTNV-1">
          <mxGeometry x="140" y="650" width="120" height="60" as="geometry" />
        </mxCell>
        <mxCell id="TFv3z8MR6hkjEZYm8_rw-38" value="Permitir consultas" style="ellipse;whiteSpace=wrap;html=1;" vertex="1" parent="WIyWlLk6GJQsqaUBKTNV-1">
          <mxGeometry x="140" y="740" width="120" height="50" as="geometry" />
        </mxCell>
        <mxCell id="TFv3z8MR6hkjEZYm8_rw-39" value="" style="endArrow=classic;html=1;entryX=0.033;entryY=0.5;entryDx=0;entryDy=0;entryPerimeter=0;exitX=1;exitY=0.3333333333333333;exitDx=0;exitDy=0;exitPerimeter=0;" edge="1" parent="WIyWlLk6GJQsqaUBKTNV-1" source="TFv3z8MR6hkjEZYm8_rw-34" target="TFv3z8MR6hkjEZYm8_rw-35">
          <mxGeometry width="50" height="50" relative="1" as="geometry">
            <mxPoint x="410" y="800" as="sourcePoint" />
            <mxPoint x="460" y="750" as="targetPoint" />
          </mxGeometry>
        </mxCell>
        <mxCell id="TFv3z8MR6hkjEZYm8_rw-40" value="" style="endArrow=classic;html=1;entryX=0.05;entryY=0.775;entryDx=0;entryDy=0;entryPerimeter=0;exitX=1;exitY=0.5;exitDx=0;exitDy=0;" edge="1" parent="WIyWlLk6GJQsqaUBKTNV-1" source="TFv3z8MR6hkjEZYm8_rw-35" target="TFv3z8MR6hkjEZYm8_rw-36">
          <mxGeometry width="50" height="50" relative="1" as="geometry">
            <mxPoint x="320" y="760" as="sourcePoint" />
            <mxPoint x="460" y="750" as="targetPoint" />
          </mxGeometry>
        </mxCell>
        <mxCell id="TFv3z8MR6hkjEZYm8_rw-41" value="" style="endArrow=classic;html=1;exitX=1;exitY=0.3333333333333333;exitDx=0;exitDy=0;exitPerimeter=0;entryX=0;entryY=0.5;entryDx=0;entryDy=0;" edge="1" parent="WIyWlLk6GJQsqaUBKTNV-1" source="TFv3z8MR6hkjEZYm8_rw-34" target="TFv3z8MR6hkjEZYm8_rw-37">
          <mxGeometry width="50" height="50" relative="1" as="geometry">
            <mxPoint x="410" y="800" as="sourcePoint" />
            <mxPoint x="460" y="750" as="targetPoint" />
          </mxGeometry>
        </mxCell>
        <mxCell id="TFv3z8MR6hkjEZYm8_rw-42" value="" style="endArrow=classic;html=1;exitX=1;exitY=0.3333333333333333;exitDx=0;exitDy=0;exitPerimeter=0;entryX=0;entryY=0;entryDx=0;entryDy=0;" edge="1" parent="WIyWlLk6GJQsqaUBKTNV-1" source="TFv3z8MR6hkjEZYm8_rw-34" target="TFv3z8MR6hkjEZYm8_rw-38">
          <mxGeometry width="50" height="50" relative="1" as="geometry">
            <mxPoint x="410" y="800" as="sourcePoint" />
            <mxPoint x="460" y="750" as="targetPoint" />
          </mxGeometry>
        </mxCell>
        <mxCell id="TFv3z8MR6hkjEZYm8_rw-43" value="Rechamar Senhas" style="ellipse;whiteSpace=wrap;html=1;" vertex="1" parent="WIyWlLk6GJQsqaUBKTNV-1">
          <mxGeometry x="360" y="170" width="120" height="40" as="geometry" />
        </mxCell>
        <mxCell id="TFv3z8MR6hkjEZYm8_rw-44" value="" style="endArrow=classic;html=1;entryX=1;entryY=0.5;entryDx=0;entryDy=0;exitX=0;exitY=0.5;exitDx=0;exitDy=0;" edge="1" parent="WIyWlLk6GJQsqaUBKTNV-1" source="TFv3z8MR6hkjEZYm8_rw-43" target="TFv3z8MR6hkjEZYm8_rw-2">
          <mxGeometry width="50" height="50" relative="1" as="geometry">
            <mxPoint x="410" y="370" as="sourcePoint" />
            <mxPoint x="460" y="320" as="targetPoint" />
          </mxGeometry>
        </mxCell>
        <mxCell id="TFv3z8MR6hkjEZYm8_rw-45" value="Exibir no painel" style="ellipse;whiteSpace=wrap;html=1;" vertex="1" parent="WIyWlLk6GJQsqaUBKTNV-1">
          <mxGeometry x="414" y="430" width="120" height="40" as="geometry" />
        </mxCell>
        <mxCell id="TFv3z8MR6hkjEZYm8_rw-46" value="" style="endArrow=classic;html=1;entryX=0.067;entryY=0.2;entryDx=0;entryDy=0;exitX=1;exitY=1;exitDx=0;exitDy=0;entryPerimeter=0;" edge="1" parent="WIyWlLk6GJQsqaUBKTNV-1" source="TFv3z8MR6hkjEZYm8_rw-2" target="TFv3z8MR6hkjEZYm8_rw-45">
          <mxGeometry width="50" height="50" relative="1" as="geometry">
            <mxPoint x="299" y="254" as="sourcePoint" />
            <mxPoint x="460" y="320" as="targetPoint" />
          </mxGeometry>
        </mxCell>
        <mxCell id="TFv3z8MR6hkjEZYm8_rw-47" value="" style="endArrow=classic;html=1;entryX=0.019;entryY=0.32;entryDx=0;entryDy=0;entryPerimeter=0;exitX=1;exitY=0.5;exitDx=0;exitDy=0;" edge="1" parent="WIyWlLk6GJQsqaUBKTNV-1" source="TFv3z8MR6hkjEZYm8_rw-45" target="TFv3z8MR6hkjEZYm8_rw-15">
          <mxGeometry width="50" height="50" relative="1" as="geometry">
            <mxPoint x="410" y="440" as="sourcePoint" />
            <mxPoint x="460" y="390" as="targetPoint" />
            <Array as="points" />
          </mxGeometry>
        </mxCell>
        <mxCell id="TFv3z8MR6hkjEZYm8_rw-48" value="" style="endArrow=classic;html=1;entryX=0.967;entryY=0.35;entryDx=0;entryDy=0;entryPerimeter=0;exitX=0;exitY=0.5;exitDx=0;exitDy=0;" edge="1" parent="WIyWlLk6GJQsqaUBKTNV-1" source="TFv3z8MR6hkjEZYm8_rw-16" target="TFv3z8MR6hkjEZYm8_rw-35">
          <mxGeometry width="50" height="50" relative="1" as="geometry">
            <mxPoint x="410" y="610" as="sourcePoint" />
            <mxPoint x="460" y="560" as="targetPoint" />
          </mxGeometry>
        </mxCell>
        <mxCell id="TFv3z8MR6hkjEZYm8_rw-49" value="" style="endArrow=classic;html=1;entryX=0.75;entryY=0;entryDx=0;entryDy=0;entryPerimeter=0;exitX=0.088;exitY=0.8;exitDx=0;exitDy=0;exitPerimeter=0;" edge="1" parent="WIyWlLk6GJQsqaUBKTNV-1" source="TFv3z8MR6hkjEZYm8_rw-14" target="TFv3z8MR6hkjEZYm8_rw-36">
          <mxGeometry width="50" height="50" relative="1" as="geometry">
            <mxPoint x="410" y="610" as="sourcePoint" />
            <mxPoint x="460" y="560" as="targetPoint" />
          </mxGeometry>
        </mxCell>
        <mxCell id="TFv3z8MR6hkjEZYm8_rw-50" value="SISTEMA DE SENHAS" style="text;html=1;strokeColor=none;fillColor=none;align=center;verticalAlign=middle;whiteSpace=wrap;rounded=0;fontStyle=1;fontSize=16;" vertex="1" parent="WIyWlLk6GJQsqaUBKTNV-1">
          <mxGeometry x="319" y="20" width="190" height="20" as="geometry" />
        </mxCell>
        <mxCell id="TFv3z8MR6hkjEZYm8_rw-51" value="" style="endArrow=classic;html=1;fontSize=16;exitX=0;exitY=0.5;exitDx=0;exitDy=0;entryX=1;entryY=1;entryDx=0;entryDy=0;" edge="1" parent="WIyWlLk6GJQsqaUBKTNV-1" source="TFv3z8MR6hkjEZYm8_rw-22" target="TFv3z8MR6hkjEZYm8_rw-35">
          <mxGeometry width="50" height="50" relative="1" as="geometry">
            <mxPoint x="410" y="260" as="sourcePoint" />
            <mxPoint x="270" y="796" as="targetPoint" />
            <Array as="points" />
          </mxGeometry>
        </mxCell>
        <mxCell id="TFv3z8MR6hkjEZYm8_rw-52" value="" style="endArrow=classic;html=1;fontSize=16;exitX=0;exitY=0.5;exitDx=0;exitDy=0;entryX=1;entryY=0.5;entryDx=0;entryDy=0;" edge="1" parent="WIyWlLk6GJQsqaUBKTNV-1" source="TFv3z8MR6hkjEZYm8_rw-26" target="TFv3z8MR6hkjEZYm8_rw-37">
          <mxGeometry width="50" height="50" relative="1" as="geometry">
            <mxPoint x="410" y="240" as="sourcePoint" />
            <mxPoint x="460" y="190" as="targetPoint" />
          </mxGeometry>
        </mxCell>
        <mxCell id="TFv3z8MR6hkjEZYm8_rw-176" value="" style="endArrow=classic;html=1;fontSize=16;entryX=1;entryY=0.5;entryDx=0;entryDy=0;exitX=0.05;exitY=0.75;exitDx=0;exitDy=0;exitPerimeter=0;" edge="1" parent="WIyWlLk6GJQsqaUBKTNV-1" source="TFv3z8MR6hkjEZYm8_rw-22" target="TFv3z8MR6hkjEZYm8_rw-38">
          <mxGeometry width="50" height="50" relative="1" as="geometry">
            <mxPoint x="410" y="780" as="sourcePoint" />
            <mxPoint x="460" y="730" as="targetPoint" />
          </mxGeometry>
        </mxCell>
        <mxCell id="TFv3z8MR6hkjEZYm8_rw-177" value="" style="endArrow=classic;html=1;fontSize=16;exitX=0;exitY=0.5;exitDx=0;exitDy=0;" edge="1" parent="WIyWlLk6GJQsqaUBKTNV-1" source="TFv3z8MR6hkjEZYm8_rw-25" target="TFv3z8MR6hkjEZYm8_rw-35">
          <mxGeometry width="50" height="50" relative="1" as="geometry">
            <mxPoint x="410" y="780" as="sourcePoint" />
            <mxPoint x="232" y="603" as="targetPoint" />
          </mxGeometry>
        </mxCell>
        <mxCell id="TFv3z8MR6hkjEZYm8_rw-178" value="" style="endArrow=classic;html=1;fontSize=16;exitX=0.033;exitY=0.28;exitDx=0;exitDy=0;exitPerimeter=0;entryX=0.767;entryY=0.95;entryDx=0;entryDy=0;entryPerimeter=0;" edge="1" parent="WIyWlLk6GJQsqaUBKTNV-1" source="TFv3z8MR6hkjEZYm8_rw-24" target="TFv3z8MR6hkjEZYm8_rw-35">
          <mxGeometry width="50" height="50" relative="1" as="geometry">
            <mxPoint x="410" y="780" as="sourcePoint" />
            <mxPoint x="460" y="730" as="targetPoint" />
          </mxGeometry>
        </mxCell>
      </root>
    </mxGraphModel>
  </diagram>
</mxfile>
